<svg width="24" height="24" viewBox="0 0 24 24" fill="none" xmlns="http://www.w3.org/2000/svg">
<g clip-path="url(#clip0_1_418)">
<path d="M21.7008 14.419C20.3651 19.7762 14.9385 23.0365 9.58005 21.7006C4.22386 20.365 0.96321 14.9387 2.29952 9.58197C3.63465 4.22419 9.06123 0.963662 14.418 2.29923C19.7761 3.63481 23.0365 9.0617 21.7006 14.4191L21.7007 14.419H21.7008Z" fill="#F7931A"/>
<path d="M16.4101 10.5752C16.6091 9.24447 15.5958 8.52912 14.2103 8.05191L14.6598 6.24925L13.5623 5.97582L13.1247 7.73102C12.8362 7.65907 12.5399 7.59128 12.2454 7.52407L12.6862 5.75729L11.5894 5.48386L11.1397 7.28593C10.9009 7.23158 10.6664 7.17786 10.4389 7.12126L10.4402 7.11559L8.92677 6.7377L8.63483 7.90973C8.63483 7.90973 9.44905 8.09635 9.43189 8.10783C9.8763 8.21874 9.95667 8.51289 9.94332 8.74605L9.43131 10.7997C9.46191 10.8075 9.5016 10.8187 9.5454 10.8363C9.50879 10.8272 9.46983 10.8173 9.4294 10.8076L8.71173 13.6845C8.65741 13.8195 8.51956 14.0221 8.20885 13.9452C8.21985 13.9611 7.4112 13.7461 7.4112 13.7461L6.86633 15.0022L8.2945 15.3582C8.56018 15.4248 8.82054 15.4945 9.07694 15.5601L8.6228 17.3834L9.71899 17.6568L10.1687 15.8529C10.4682 15.9342 10.7588 16.0091 11.0433 16.0798L10.5951 17.8753L11.6926 18.1487L12.1467 16.3288C14.0181 16.6829 15.4252 16.5402 16.0175 14.8477C16.4948 13.485 15.9938 12.699 15.0092 12.1865C15.7263 12.0211 16.2664 11.5496 16.4105 10.5754L16.4101 10.5752L16.4101 10.5752ZM13.9026 14.0909C13.5635 15.4536 11.2689 14.717 10.525 14.5323L11.1277 12.1166C11.8715 12.3023 14.2571 12.6698 13.9027 14.0909H13.9026ZM14.242 10.5555C13.9326 11.795 12.0229 11.1653 11.4034 11.0109L11.9497 8.82005C12.5693 8.97446 14.5643 9.26265 14.2421 10.5555H14.242Z" fill="white"/>
</g>
<defs>
<clipPath id="clip0_1_418">
<rect width="20" height="20" fill="white" transform="translate(2 2)"/>
</clipPath>
</defs>
</svg>
