<svg width="48" height="48" viewBox="0 0 48 48" fill="none" xmlns="http://www.w3.org/2000/svg">
<rect width="48" height="48" rx="24" fill="#070A0E"/>
<path fill-rule="evenodd" clip-rule="evenodd" d="M12.4843 32.5387C12.0924 32.2992 11.7686 31.9632 11.5437 31.5627C11.3188 31.1623 11.2005 30.7108 11.2 30.2516V25.047C11.2004 24.8504 11.2526 24.6573 11.3514 24.4873C11.4501 24.3173 11.592 24.1763 11.7626 24.0786C11.9332 23.9808 12.1265 23.9298 12.3232 23.9305C12.5198 23.9313 12.7127 23.9838 12.8826 24.0829L24.6291 30.9317C24.9667 31.1287 25.2469 31.4106 25.4417 31.7495C25.6366 32.0883 25.7392 32.4723 25.7395 32.8632V38.2564C25.74 38.495 25.6768 38.7295 25.5564 38.9356C25.436 39.1417 25.2628 39.3119 25.0546 39.4286C24.8465 39.5454 24.6109 39.6045 24.3723 39.5998C24.1337 39.5951 23.9006 39.5268 23.6972 39.4019L12.4843 32.5387ZM29.994 22.6563C30.3316 22.8533 30.6117 23.1353 30.8064 23.4742C31.0012 23.8131 31.1037 24.1971 31.1039 24.588V35.5307C31.1042 35.6893 31.0621 35.8451 30.9821 35.982C30.902 36.1189 30.7869 36.2319 30.6486 36.3095L28.0767 37.7574C28.0439 37.7753 28.0092 37.7897 27.9733 37.8003V31.7243C27.9732 31.3373 27.8729 30.957 27.6821 30.6203C27.4913 30.2836 27.2167 30.002 26.8848 29.8029L16.5694 23.6321V16.7724C16.5698 16.5757 16.6221 16.3827 16.7208 16.2127C16.8196 16.0427 16.9615 15.9017 17.1321 15.8039C17.3027 15.7062 17.496 15.6551 17.6926 15.6558C17.8893 15.6566 18.0822 15.7092 18.2521 15.8082L29.994 22.6563ZM35.1357 14.5739C35.4747 14.7706 35.756 15.0529 35.9514 15.3926C36.1468 15.7322 36.2494 16.1173 36.2491 16.5091V32.4937C36.2482 32.6548 36.204 32.8128 36.121 32.9509C36.038 33.0891 35.9194 33.2023 35.7775 33.2788L33.3409 34.5948V23.4675C33.3407 23.0813 33.2407 22.7018 33.0506 22.3657C32.8605 22.0296 32.5867 21.7484 32.2559 21.5493L21.7111 15.225V8.71854C21.7117 8.52142 21.7631 8.32778 21.8606 8.15642C22.0099 7.9001 22.2549 7.71347 22.5416 7.63746C22.8284 7.56145 23.1336 7.60226 23.3903 7.75094L35.1357 14.5739Z" fill="#00D395"/>
</svg>
