<svg width="22" height="22" viewBox="0 0 22 22" fill="none" xmlns="http://www.w3.org/2000/svg">
<path d="M16.0808 7.61623C17.3262 7.61623 18.3358 6.60663 18.3358 5.36123C18.3358 4.11583 17.3262 3.10623 16.0808 3.10623C14.8354 3.10623 13.8258 4.11583 13.8258 5.36123C13.8258 6.60663 14.8354 7.61623 16.0808 7.61623Z" stroke="#E1E1E1" stroke-width="1.5" stroke-miterlimit="10" stroke-linecap="round" stroke-linejoin="round"/>
<path d="M5.92529 7.61623C7.1707 7.61623 8.18029 6.60663 8.18029 5.36123C8.18029 4.11583 7.1707 3.10623 5.92529 3.10623C4.67989 3.10623 3.67029 4.11583 3.67029 5.36123C3.67029 6.60663 4.67989 7.61623 5.92529 7.61623Z" stroke="#E1E1E1" stroke-width="1.5" stroke-miterlimit="10" stroke-linecap="round" stroke-linejoin="round"/>
<path d="M16.0808 18.8927C17.3262 18.8927 18.3358 17.8831 18.3358 16.6377C18.3358 15.3923 17.3262 14.3827 16.0808 14.3827C14.8354 14.3827 13.8258 15.3923 13.8258 16.6377C13.8258 17.8831 14.8354 18.8927 16.0808 18.8927Z" stroke="#E1E1E1" stroke-width="1.5" stroke-miterlimit="10" stroke-linecap="round" stroke-linejoin="round"/>
<path d="M5.92529 18.8927C7.1707 18.8927 8.18029 17.8831 8.18029 16.6377C8.18029 15.3923 7.1707 14.3827 5.92529 14.3827C4.67989 14.3827 3.67029 15.3923 3.67029 16.6377C3.67029 17.8831 4.67989 18.8927 5.92529 18.8927Z" stroke="#E1E1E1" stroke-width="1.5" stroke-miterlimit="10" stroke-linecap="round" stroke-linejoin="round"/>
</svg>
