<svg width="24" height="24" viewBox="0 0 24 24" fill="none" xmlns="http://www.w3.org/2000/svg">
<g clip-path="url(#clip0_1_897)">
<path d="M6.66055 20.5894L5.31738 18.1859C5.27546 18.1086 5.27546 17.9805 5.3192 17.9033L6.80999 15.2361C6.85373 15.1589 6.96126 15.0948 7.04874 15.0948H10.0303C10.116 15.0948 10.2253 15.1607 10.2691 15.2361L11.7599 17.9052C11.8036 17.9824 11.8036 18.1124 11.7599 18.1896L10.2691 20.8587C10.2271 20.9341 10.1214 20.9981 10.0358 21H7.35309C7.09977 20.9962 6.79359 20.8154 6.66055 20.5894ZM16.3452 15.0986L13.3746 9.78108C13.3163 9.6756 13.1668 9.58707 13.0484 9.58707H7.10706C6.98859 9.58707 6.83915 9.6756 6.78083 9.78108L3.81018 15.0986C3.75186 15.2041 3.75186 15.383 3.81018 15.4885L4.68133 17.0481L6.2031 14.3244C6.27236 14.2001 6.44185 14.1003 6.58036 14.1003H10.4951C10.6336 14.1003 10.8031 14.202 10.8723 14.3244L12.8297 17.828C12.8989 17.9523 12.8989 18.1538 12.8297 18.2782L11.3097 21H13.0502C13.1686 21 13.3181 20.9115 13.3764 20.806L16.347 15.4885C16.4035 15.3811 16.4035 15.2041 16.3452 15.0986ZM21.738 11.58L17.1781 3.42005C17.0505 3.18836 16.7334 3 16.4764 3H7.35856C7.10159 3 6.78448 3.18836 6.65508 3.42005L2.09705 11.58C1.96765 11.8116 1.96765 12.1884 2.09705 12.4182L3.14133 14.2886L6.1703 8.86563C6.25596 8.71306 6.46372 8.58874 6.63503 8.58874H13.5149C13.6862 8.58874 13.894 8.71306 13.9796 8.86563L17.4205 15.0232C17.5061 15.1758 17.5061 15.4244 17.4205 15.577L14.3915 21H16.4764C16.7334 21 17.0505 20.8116 17.1799 20.58L21.738 12.4201C21.8674 12.1884 21.8674 11.8116 21.738 11.58Z" fill="url(#paint0_linear_1_897)"/>
</g>
<defs>
<linearGradient id="paint0_linear_1_897" x1="6.95864" y1="20.8764" x2="17.3747" y2="3.421" gradientUnits="userSpaceOnUse">
<stop offset="0.00202893" stop-color="#FFDC00"/>
<stop offset="0.3333" stop-color="#E58E2F"/>
<stop offset="0.6666" stop-color="#DB2D72"/>
<stop offset="1" stop-color="#FF00FF"/>
</linearGradient>
<clipPath id="clip0_1_897">
<rect width="20" height="18" fill="white" transform="translate(2 3)"/>
</clipPath>
</defs>
</svg>
