<svg width="24" height="24" viewBox="0 0 24 24" fill="none" xmlns="http://www.w3.org/2000/svg">
<path d="M12 22C17.5228 22 22 17.5228 22 12C22 6.47715 17.5228 2 12 2C6.47715 2 2 6.47715 2 12C2 17.5228 6.47715 22 12 22Z" fill="#ED79AA"/>
<path opacity="0.5" fill-rule="evenodd" clip-rule="evenodd" d="M16.6575 7.58063L15.4888 8.7575C15.0677 8.33162 14.5662 7.99359 14.0135 7.76303C13.4607 7.53246 12.8677 7.41396 12.2688 7.41438C9.82189 7.41438 7.82501 9.35813 7.72001 11.7956H7.71501V16.2469C6.64949 15.0896 6.05942 13.5731 6.06251 12C6.06251 8.54813 8.84126 5.75 12.2688 5.75C13.0851 5.74942 13.8933 5.91094 14.6467 6.22519C15.4001 6.53944 16.0836 7.00016 16.6575 7.58063ZM16.6575 16.4194C15.523 17.5672 13.9837 18.2244 12.37 18.25V16.585C13.5444 16.5596 14.6628 16.0784 15.4888 15.2431L16.6575 16.4194Z" fill="white"/>
<path fill-rule="evenodd" clip-rule="evenodd" d="M9.30078 17.49V11.7963H9.30516C9.39266 10.1681 10.7314 8.875 12.3702 8.875C14.0652 8.875 15.4395 10.2588 15.4395 11.9663C15.4395 13.6731 14.0652 15.0569 12.3708 15.0569C11.8249 15.0578 11.2888 14.9116 10.8189 14.6338V18.0781C10.289 17.9506 9.7785 17.753 9.30078 17.4906V17.49ZM12.3702 13.5287C12.5747 13.5281 12.777 13.4872 12.9657 13.4083C13.1544 13.3294 13.3257 13.2141 13.4698 13.069C13.6139 12.9239 13.728 12.7518 13.8056 12.5626C13.8832 12.3734 13.9228 12.1708 13.922 11.9663C13.922 11.1031 13.227 10.4038 12.3702 10.4038C12.1657 10.4045 11.9634 10.4455 11.7748 10.5244C11.5862 10.6033 11.415 10.7186 11.2709 10.8637C11.1269 11.0088 11.0128 11.1809 10.9353 11.37C10.8577 11.5592 10.8182 11.7618 10.8189 11.9663C10.8189 12.8288 11.5133 13.5287 12.3702 13.5287Z" fill="white"/>
</svg>
