<svg width="49" height="48" viewBox="0 0 49 48" fill="none" xmlns="http://www.w3.org/2000/svg">
<path d="M24.7003 48C37.9672 48 48.7221 37.2548 48.7221 24C48.7221 10.7452 37.9672 0 24.7003 0C11.4334 0 0.678467 10.7452 0.678467 24C0.678467 37.2548 11.4334 48 24.7003 48Z" fill="#F00500"/>
<path d="M33.8713 25.5312C33.8563 25.6152 33.6116 25.8642 33.3654 26.0472C32.6447 26.5737 31.355 27.0642 30.0444 27.2997C29.2982 27.4347 28.552 27.4557 28.3268 27.3462C28.1812 27.2727 28.1601 27.2157 28.2127 27.0282C28.3223 26.6382 28.6781 26.2092 29.2306 25.8072C29.5129 25.6047 30.6569 24.9102 31.1884 24.6177C32.0652 24.1377 32.7753 23.8527 33.2558 23.7837C33.4074 23.7627 33.5906 23.7567 33.6461 23.7837C33.7422 23.8197 33.8458 24.0972 33.8863 24.4302C33.9089 24.6072 33.8984 25.3902 33.8713 25.5312ZM21.5707 27.2577C21.5406 27.3207 21.383 27.3882 21.2058 27.4137C21.0272 27.4407 20.4852 27.4242 20.1774 27.3882C19.0694 27.2412 17.8953 26.9022 17.0395 26.4852C16.5591 26.2512 16.2138 26.0157 15.9586 25.7607L15.8114 25.6092L15.7964 25.4112C15.7694 25.0662 15.7754 24.5247 15.8174 24.3312C15.8446 24.17 15.8994 24.0147 15.9796 23.8722C16.0201 23.8197 16.0201 23.8197 16.2093 23.8197C16.439 23.8197 16.6312 23.8557 16.945 23.9547C17.5875 24.1542 18.5424 24.6342 19.7075 25.3332C20.6683 25.9062 21.0287 26.1882 21.3049 26.5737C21.4926 26.8137 21.6172 27.1527 21.5707 27.2577ZM28.9649 34.5192C28.9649 34.5342 28.9018 34.7847 28.8237 35.0817C28.7734 35.2638 28.7264 35.4469 28.6826 35.6307C28.6241 35.6352 28.573 35.6412 28.5145 35.6352H28.3493L28.1181 36.1782C27.9935 36.4752 27.8779 36.7512 27.8629 36.7932L27.8313 36.8667L27.7217 36.6882L27.6121 36.5112V35.0667L27.5701 35.0772C27.48 35.0982 26.8495 35.1822 26.5732 35.2077C25.4309 35.3215 24.279 35.2968 23.1426 35.1342C23.0283 35.1144 22.913 35.1004 22.7973 35.0922C22.7928 35.0982 22.7973 35.4312 22.8078 35.8437L22.8228 36.5847L22.7357 36.7197C22.6877 36.7932 22.6411 36.8547 22.6411 36.8607C22.6261 36.8757 22.5736 36.7932 22.4535 36.5532C22.3243 36.3014 22.226 36.035 22.1607 35.7597L22.1247 35.6097L21.9625 35.6187L21.8004 35.6352L21.7583 35.4417C21.7354 35.3244 21.7164 35.2063 21.7013 35.0877L21.6863 34.9212L21.5511 34.8012L21.3785 34.6542C21.3515 34.6332 21.3409 34.5972 21.3409 34.5657V34.5027L21.994 34.5087L22.6471 34.5132L22.6667 34.5807L22.6877 34.6497L22.9129 34.6602L23.7897 34.6857L24.4428 34.7007L24.6094 34.4412L24.7821 34.1802H25.0013L24.9968 33.6372L24.9908 33.0942L24.704 32.9697C23.7792 32.5632 23.2372 32.0997 23.033 31.5357C22.9909 31.4202 22.9909 31.3782 22.9804 30.8577C22.9759 30.3402 22.9759 30.2937 23.012 30.1782C23.0472 30.0504 23.1154 29.9342 23.2098 29.841C23.3041 29.7478 23.4212 29.681 23.5495 29.6472C23.6395 29.6202 23.8737 29.6202 25.1064 29.6202L26.5567 29.6262L26.7188 29.7042C26.8751 29.7684 27.0103 29.8749 27.1092 30.0117C27.2353 30.1782 27.2728 30.3087 27.2728 30.6267C27.2728 31.0812 27.2413 31.4727 27.1948 31.6287C27.1256 31.8433 27.0233 32.0457 26.8915 32.2287C26.6303 32.5632 26.1558 32.8962 25.7204 33.0477L25.5958 33.0942L25.6018 33.6432L25.6063 34.1907L25.7219 34.2012L25.836 34.2117L25.9937 34.4457L26.1438 34.6812H26.8449C27.2308 34.6812 27.5701 34.6857 27.6016 34.6902C27.6542 34.7022 27.6647 34.6962 27.7157 34.6077L27.7788 34.5132H28.3793C28.8297 34.4922 28.9649 34.5027 28.9649 34.5192Z" fill="black"/>
<path d="M26.2022 36.0182C26.1031 36.0752 26.0356 36.1007 26.0206 36.0917C26.0056 36.0857 25.9305 36.0227 25.8524 35.9657L25.7113 35.8517L25.5657 36.0077C25.2474 36.3527 25.2354 36.3677 25.1423 36.3722C24.9966 36.3872 24.9651 36.3617 24.7879 36.0962C24.6934 35.9612 24.6213 35.8457 24.6213 35.8457C24.6213 35.8457 24.5522 35.8352 24.4742 35.8307L24.3285 35.8157L24.261 35.9552L24.1919 36.0962L24.0718 36.0602C23.9776 36.0292 23.8854 35.9926 23.7955 35.9507L23.6394 35.8727V35.5742L25.0282 35.5802L26.4169 35.5847L26.4214 35.7257C26.4274 35.8922 26.4319 35.8877 26.2022 36.0182Z" fill="black"/>
<path d="M39.2591 29.6548C39.2546 29.6323 39.2546 29.5948 39.2501 29.5393C37.7921 29.4014 36.3211 29.553 34.9219 29.9855C33.5228 30.418 32.2231 31.1228 31.0977 32.0593C31.0977 32.0593 30.0288 27.1543 25.0172 27.1543C20.0027 27.1543 18.1455 32.0593 18.1455 32.0593C15.3364 29.0383 11.577 29.2573 10.2183 29.4553L10.2138 29.5543C10.1717 30.3103 10.1927 30.6703 10.3189 31.1443C10.7092 32.6323 11.9163 34.2703 13.8065 35.8768C16.9023 38.5063 21.1002 40.4038 24.28 40.6243C27.5951 40.8493 32.488 38.9128 35.746 36.0853C36.2564 35.6323 36.7369 35.1523 37.1873 34.6408C37.5101 34.2658 37.9905 33.6178 37.9545 33.6178C37.944 33.6178 37.9545 33.6073 37.9755 33.5968C37.9905 33.5863 38.0055 33.5713 37.9965 33.5608C37.9905 33.5548 38.001 33.5398 38.0175 33.5353C38.0325 33.5293 38.043 33.5203 38.0385 33.5083C38.0325 33.4978 38.0385 33.4873 38.0596 33.4828C38.0746 33.4768 38.0806 33.4618 38.0746 33.4513C38.0686 33.4408 38.0746 33.4303 38.0851 33.4303C38.0956 33.4303 38.1061 33.4153 38.1061 33.4048C38.1061 33.3943 38.1166 33.3778 38.1271 33.3778C38.1376 33.3778 38.1481 33.3673 38.1481 33.3568C38.1655 33.3141 38.1882 33.2738 38.2157 33.2368C38.2938 33.1168 38.6061 32.5588 38.6496 32.4658C38.9469 31.7923 39.1345 31.1923 39.2231 30.5923C39.2546 30.3058 39.2802 29.7793 39.2591 29.6533V29.6548ZM26.2063 36.0178C26.1072 36.0748 26.0396 36.1003 26.0246 36.0913C26.0096 36.0853 25.9345 36.0223 25.8565 35.9653L25.7153 35.8513L25.5697 36.0073C25.2514 36.3523 25.2394 36.3673 25.1463 36.3718C25.0007 36.3868 24.9692 36.3613 24.792 36.0958C24.6974 35.9608 24.6254 35.8453 24.6254 35.8453C24.6254 35.8453 24.5563 35.8348 24.4782 35.8303L24.3326 35.8153L24.265 35.9548L24.196 36.0958L24.0759 36.0598C23.9817 36.0287 23.8895 35.9922 23.7996 35.9503L23.6435 35.8723V35.5738L25.0322 35.5798L26.421 35.5843L26.4255 35.7253C26.4315 35.8918 26.436 35.8873 26.2063 36.0178ZM28.8187 35.0788C28.7684 35.2606 28.7208 35.4431 28.676 35.6263C28.619 35.6308 28.5664 35.6368 28.5094 35.6308H28.3427L28.1175 36.1798C27.9929 36.4768 27.8773 36.7528 27.8623 36.7948L27.8308 36.8683L27.7212 36.6898L27.6116 36.5128V35.0683L27.5695 35.0788C27.4794 35.0998 26.8489 35.1838 26.5726 35.2093C25.4303 35.3231 24.2784 35.2984 23.142 35.1358C23.0277 35.1161 22.9124 35.1021 22.7967 35.0938C22.7922 35.0998 22.7967 35.4328 22.8072 35.8453L22.8222 36.5863L22.7351 36.7213C22.6871 36.7948 22.6406 36.8563 22.6406 36.8623C22.6255 36.8773 22.573 36.7948 22.4529 36.5548C22.3238 36.303 22.2255 36.0366 22.1601 35.7613L22.1241 35.6113L21.9619 35.6218L21.7998 35.6368L21.7578 35.4433C21.7348 35.326 21.7158 35.2079 21.7007 35.0893L21.6857 34.9228L21.5506 34.8028C21.4942 34.7525 21.4366 34.7035 21.3779 34.6558C21.3509 34.6348 21.3404 34.5988 21.3404 34.5673V34.5043L21.9935 34.5103L22.6466 34.5148L22.6661 34.5823L22.6871 34.6513L22.9123 34.6618L23.7891 34.6873L24.4422 34.7023L24.6088 34.4428L24.7815 34.1818H25.0007L24.9962 33.6388L24.9902 33.0958L24.7034 32.9713C23.7786 32.5648 23.2366 32.1013 23.0324 31.5373C22.9904 31.4218 22.9904 31.3798 22.9799 30.8593C22.9754 30.3418 22.9754 30.2953 23.0114 30.1798C23.0467 30.052 23.1149 29.9358 23.2092 29.8426C23.3035 29.7494 23.4206 29.6826 23.5489 29.6488C23.639 29.6218 23.8732 29.6218 25.1058 29.6218L26.5561 29.6278L26.7183 29.7058C26.8745 29.77 27.0096 29.8765 27.1086 30.0133C27.2347 30.1798 27.2723 30.3103 27.2723 30.6283C27.2723 31.0828 27.2407 31.4743 27.1942 31.6303C27.125 31.8449 27.0227 32.0473 26.8909 32.2303C26.6297 32.5648 26.1552 32.8978 25.7199 33.0493L25.5952 33.0958L25.6012 33.6448L25.6057 34.1923L25.7214 34.2028L25.8355 34.2133L25.9931 34.4473L26.1432 34.6828H26.8444C27.2302 34.6828 27.5695 34.6873 27.6011 34.6918C27.6536 34.7038 27.6641 34.6978 27.7152 34.6093L27.7782 34.5148H28.3788C28.8442 34.5148 28.9793 34.5208 28.9793 34.5358C28.9643 34.5313 28.8952 34.7863 28.8172 35.0788H28.8187Z" fill="white"/>
<path d="M39.2206 29.1215C39.21 28.8791 39.194 28.6371 39.1725 28.3955C38.9473 26.027 38.3423 24.092 37.1937 22.0415C37.1507 21.9712 37.1126 21.898 37.0796 21.8225C37.0691 21.8075 37.0646 21.7925 37.0586 21.782C37.2208 21.296 37.8844 19.2665 38.4098 16.946C39.126 13.796 39.5809 10.112 38.1921 9.00647C38.1921 9.00647 35.79 8.82947 32.574 11.9795C31.7017 12.8495 30.903 13.7945 30.1929 14.801L29.9677 14.729C28.6754 14.3062 27.3353 14.0467 25.9785 13.9565C25.5717 13.9265 24.0523 13.9265 23.5568 13.9565C22.0585 14.0555 20.9084 14.2805 19.6038 14.7335C19.5557 14.7524 19.5072 14.7699 19.4581 14.786C18.7222 13.7818 17.8992 12.8441 16.9989 11.984C13.6508 8.81897 11.1601 9.00197 11.1601 9.00197C9.68874 10.1435 10.1902 13.994 10.9499 17.249C11.3272 18.8461 11.777 20.4252 12.2981 21.9815C12.2812 22.0205 12.2621 22.0585 12.2411 22.0955C11.025 24.5585 10.3659 26.9315 10.2097 29.456C11.5715 29.258 15.3264 29.033 18.1399 32.0585C18.1399 32.0585 19.9986 27.155 25.0117 27.155C30.0232 27.155 31.0937 32.06 31.0937 32.06C32.2196 31.1249 33.5191 30.4209 34.9178 29.9885C36.3165 29.5561 37.7868 29.4036 39.2446 29.54L39.2191 29.1215H39.2206ZM13.286 20.0135C13.286 20.0135 11.3342 15.1355 11.8342 12.3485C11.9183 11.8805 12.0744 11.468 12.3206 11.156C12.3206 11.156 14.5336 11.375 18.1054 15.3395C18.1054 15.3395 17.4268 15.668 16.5184 16.367C16.5184 16.367 16.5124 16.3715 16.5079 16.3715C15.2065 17.3639 14.112 18.6012 13.286 20.0135ZM21.5735 27.2585C21.5405 27.3215 21.3844 27.389 21.2072 27.4145C21.0285 27.4415 20.4866 27.425 20.1788 27.389C19.0708 27.242 17.8967 26.903 17.0409 26.486C16.5605 26.252 16.2152 26.0165 15.9599 25.7615L15.8128 25.61L15.7978 25.412C15.7708 25.067 15.7768 24.5255 15.8188 24.332C15.8459 24.1708 15.9008 24.0155 15.981 23.873C16.0215 23.8205 16.0215 23.8205 16.2107 23.8205C16.4404 23.8205 16.6326 23.8565 16.9463 23.9555C17.5889 24.155 18.5438 24.635 19.7088 25.334C20.6697 25.907 21.03 26.189 21.3063 26.5745C21.494 26.8145 21.6186 27.1535 21.572 27.2585H21.5735ZM33.8727 25.532C33.8577 25.616 33.613 25.865 33.3668 26.048C32.6461 26.5745 31.3564 27.065 30.0457 27.3005C29.2996 27.4355 28.5534 27.4565 28.3282 27.347C28.1825 27.2735 28.1615 27.2165 28.2141 27.029C28.3237 26.639 28.6795 26.21 29.232 25.808C29.5143 25.604 30.6583 24.911 31.1898 24.6185C32.0666 24.1385 32.7767 23.8535 33.2572 23.7845C33.4088 23.7635 33.592 23.7575 33.649 23.7845C33.7436 23.8205 33.8472 24.098 33.8892 24.431C33.9102 24.608 33.8997 25.391 33.8742 25.532H33.8727ZM33.0064 16.367L32.9959 16.361C32.5182 15.9707 32.0044 15.6266 31.4615 15.3335C34.9132 11.369 37.0466 11.15 37.0466 11.15C37.2823 11.468 37.4339 11.8745 37.518 12.344C38.003 15.1295 36.1188 20.012 36.1188 20.012C35.3278 18.6068 34.2707 17.3687 33.0064 16.367Z" fill="#FFA409"/>
<path d="M37.5183 12.3463C37.1099 12.2953 35.1837 12.2848 33.0007 16.3693L32.9902 16.3633C32.5125 15.973 31.9987 15.629 31.4558 15.3358C34.9074 11.3713 37.0409 11.1523 37.0409 11.1523C37.2811 11.4703 37.4342 11.8768 37.5168 12.3463H37.5183Z" fill="#FF9300"/>
<path d="M36.1234 20.0116C35.3324 18.6047 34.2736 17.3659 33.0066 16.3651C35.1896 12.2806 37.1113 12.2911 37.5227 12.3421C38.0091 15.1336 36.1234 20.0116 36.1234 20.0116ZM37.6008 12.3571L37.5227 12.3421L37.6008 12.3571Z" fill="#FF8300"/>
<path d="M18.1026 15.3358C18.1026 15.3358 17.424 15.6658 16.5157 16.3633C16.5157 16.3633 16.5097 16.3693 16.5052 16.3693C14.2441 12.2788 12.2533 12.2953 11.8269 12.3463C11.9095 11.8768 12.0671 11.4658 12.3118 11.1523C12.3179 11.1523 14.5309 11.3713 18.1026 15.3373V15.3358Z" fill="#FF9300"/>
<path d="M16.5129 16.3651C15.2089 17.3573 14.1126 18.5957 13.2864 20.0101C13.2864 20.0101 11.3347 15.1336 11.8346 12.3421C12.258 12.2911 14.2518 12.2806 16.5129 16.3651Z" fill="#FF8300"/>
<path d="M11.8367 12.3477L11.7527 12.3627L11.8352 12.3477H11.8367Z" fill="#FF8300"/>
<path d="M30.836 22.7236C30.836 22.7236 29.165 22.8271 29.3737 21.5236C29.5839 20.2186 30.8886 20.0626 31.2534 20.1136C31.6197 20.1661 33.0805 20.6881 32.8208 21.7846C32.5596 22.8796 32.1932 22.6696 31.9846 22.7236C31.7759 22.7746 30.836 22.7236 30.836 22.7236ZM18.5128 22.7236C18.5128 22.7236 16.8433 22.8271 17.052 21.5236C17.2622 20.2186 18.5654 20.0626 18.9317 20.1136C19.2965 20.1661 20.7589 20.6881 20.4976 21.7846C20.2364 22.8796 19.8715 22.6696 19.6629 22.7236C19.4527 22.7746 18.5143 22.7236 18.5143 22.7236H18.5128Z" fill="white"/>
</svg>
