<svg width="24" height="24" viewBox="0 0 24 24" fill="none" xmlns="http://www.w3.org/2000/svg">
<path d="M12 22C17.5228 22 22 17.5228 22 12C22 6.47715 17.5228 2 12 2C6.47715 2 2 6.47715 2 12C2 17.5228 6.47715 22 12 22Z" fill="#5546FF"/>
<path d="M16.0801 17.2692L13.9274 13.89H17.0188V12.6134H6.8811V13.89H9.97247L7.81978 17.2692H9.42178L11.9499 13.3017L14.4781 17.2692H16.0801ZM17.0188 11.3743V10.0977H13.99L16.1176 6.75606H14.5031L11.9499 10.7861L9.39675 6.75606H7.78223L9.90989 10.0977H6.8811V11.3868L17.0188 11.3743Z" fill="white"/>
</svg>
