<svg width="18" height="19" viewBox="0 0 18 19" fill="none" xmlns="http://www.w3.org/2000/svg">
<path d="M8.9973 0.0240929C12.0828 0.0240929 14.9935 0.964202 17.6752 2.50092L17.8741 2.59131L17.8138 2.80223C17.8078 5.82143 16.9882 8.78036 15.4455 11.3717C13.9509 14.0233 11.7754 16.2349 9.14193 17.7717L8.9973 17.8741L8.84061 17.7656C6.17697 16.2229 4.15815 14.0474 2.62746 11.3777C1.09677 8.71407 0.17474 5.74911 0.17474 2.66966L0.150635 2.52502L0.253082 2.44065C2.92275 0.903938 5.90579 0.00601387 8.99127 0.00601387" fill="#8D33E5"/>
<path d="M17.7717 2.41656C15.108 0.867787 12.0828 0.0421792 8.99731 0.0301266V17.7717L9.19618 17.8922C11.8538 16.3434 14.0534 14.1257 15.5781 11.4621C17.1268 8.8105 17.9464 5.80336 17.9525 2.73595V2.519L17.7717 2.41656Z" fill="#7000DF"/>
<path d="M17.9826 2.6998V2.46477L17.7837 2.35027C15.108 0.813556 12.0768 0 8.99129 0C5.90581 0 2.87456 0.813556 0.204895 2.35027L0 2.46477V2.6998C0.0120527 5.78528 0.825608 8.8105 2.36835 11.4741C3.91109 14.1438 6.12878 16.3555 8.79845 17.8982L8.99732 18.0127L9.19619 17.8982C11.8659 16.3615 14.0835 14.1438 15.6263 11.4802C17.1751 8.8105 17.9946 5.78528 18.0007 2.6998H17.9826ZM8.98527 17.1208C3.80865 14.0956 0.49416 8.68395 0.458002 2.68775C3.06741 1.22335 6.00223 0.451975 8.99732 0.451975C11.9924 0.451975 14.9272 1.22335 17.5366 2.68775C17.5065 8.696 14.186 14.0956 8.99732 17.1148L8.98527 17.1208Z" fill="#7000DF"/>
<path d="M8.99732 17.1148C3.80865 14.0956 0.49416 8.68395 0.458002 2.68775C3.06741 1.22335 6.00826 0.451975 8.99732 0.451975V0C5.91184 0 2.87456 0.807529 0.198869 2.35027L0 2.46477V2.6998C0.00602634 5.78528 0.825608 8.8105 2.36835 11.4741C3.91109 14.1438 6.12878 16.3555 8.79845 17.8982L8.99732 18.0127V17.1148Z" fill="#8D33E5"/>
<path d="M14.65 5.6045C14.65 5.53821 14.6379 5.46589 14.6138 5.40563C14.415 4.8271 14.1136 4.28473 13.734 3.80865C13.6436 3.68209 13.5351 3.56759 13.4387 3.44707L13.3603 3.35667C13.3302 3.32051 13.288 3.29038 13.2458 3.26628C13.1615 3.21807 13.0711 3.19396 12.9747 3.19396C12.9264 3.19999 12.8843 3.20601 12.8361 3.22409C12.8119 3.23012 12.7939 3.23614 12.7758 3.2482C12.7758 3.2482 9.50349 5.01994 8.99125 5.2851C8.48504 5.01994 5.23082 3.23614 5.15247 3.23012C5.11029 3.21204 5.06208 3.20601 5.01387 3.19999C4.91745 3.19999 4.82102 3.22409 4.74268 3.2723C4.7005 3.29641 4.66434 3.32654 4.63421 3.3627L4.55587 3.45309C4.45342 3.56759 4.357 3.68209 4.26058 3.81467C3.899 4.2787 3.6037 4.79094 3.39278 5.33934C3.3506 5.4237 3.33252 5.5141 3.33252 5.6045C3.33252 5.69489 3.3506 5.79131 3.38676 5.86965C3.42291 5.95402 3.48318 6.02634 3.55549 6.0866C3.56755 6.09865 3.5796 6.11071 3.59768 6.11673L3.63986 6.14687L3.70013 6.18905L4.21839 6.50845L5.24287 7.14724L6.26735 7.79206L7.11706 8.30429L7.12911 11.902V12.2998V12.4986C7.12911 12.5348 7.12911 12.577 7.12911 12.6131C7.13514 12.6794 7.15322 12.7517 7.17732 12.812C7.23156 12.9325 7.3099 13.035 7.41235 13.1133C7.5148 13.1917 7.63532 13.2459 7.76188 13.276C7.88843 13.3062 8.02101 13.3363 8.15359 13.3544C8.70801 13.4327 9.26243 13.4327 9.81686 13.3544C10.0157 13.3242 10.0639 13.3122 10.1965 13.282C10.3291 13.2519 10.4496 13.1977 10.5521 13.1133C10.6545 13.035 10.7389 12.9325 10.7871 12.812C10.8112 12.7457 10.8293 12.6794 10.8353 12.6131C10.8353 12.5709 10.8353 12.5348 10.8353 12.4986C10.8353 12.4986 10.8775 9.25043 10.8654 8.31032L11.7091 7.79808L12.7577 7.14724L13.7882 6.50242L14.3005 6.18302C14.4089 6.12879 14.4993 6.05044 14.5596 5.948C14.6198 5.83952 14.656 5.72502 14.65 5.6045Z" fill="#3F017F"/>
<path d="M7.50881 8.09934C7.50881 7.79802 7.44252 7.49671 7.30994 7.21949C7.17736 6.94831 6.98452 6.70726 6.74949 6.52044C6.07454 5.98409 5.02596 5.79125 4.00751 6.0082C3.94122 6.02025 3.7544 5.90575 3.68811 5.8937C3.68811 5.8937 3.67003 5.88165 3.70619 5.91178C3.74235 5.94191 3.73632 5.97204 3.74235 5.97807L7.50278 8.1355V8.09934H7.50881Z" fill="#F4A900"/>
<path d="M10.7991 5.73705C11.6006 5.42368 12.2936 4.61615 12.613 3.62783C12.6371 3.55552 12.7637 3.53744 12.8119 3.48923C12.83 3.47718 12.7697 3.41089 12.7878 3.39883L8.99121 5.58639L9.03942 5.6105C9.30458 5.76116 9.59385 5.85758 9.90119 5.87566C10.2025 5.89976 10.5098 5.85155 10.7931 5.73705H10.7991Z" fill="#78B6E4"/>
<path d="M10.4195 8.20186C10.1604 8.35252 9.9374 8.56344 9.76866 8.81655C9.59992 9.06965 9.49747 9.35289 9.45529 9.65421C9.33476 10.5039 9.69032 11.5043 10.3894 12.2636C10.4436 12.3178 10.4376 12.4263 10.4496 12.4986C10.4496 12.5167 10.4737 12.5167 10.4918 12.5288L10.5099 8.15968L10.4195 8.20186Z" fill="#20B5AC"/>
<path d="M9.63614 9.81085C9.69037 9.50953 9.8109 9.23232 9.98567 8.98524C10.1604 8.73816 10.3955 8.53929 10.6606 8.39466L10.5039 8.1536L10.4196 8.20784C10.1604 8.3585 9.93746 8.56942 9.76872 8.82253C9.59998 9.07563 9.49753 9.35887 9.45535 9.66019C9.3529 10.4014 9.61203 11.2692 10.1544 11.9864C9.75064 11.3355 9.56382 10.5762 9.63614 9.81085Z" fill="#3F017F"/>
<path d="M10.8353 5.51404C10.5521 5.61649 10.2447 5.65265 9.9434 5.62252C9.64208 5.59239 9.35282 5.48994 9.09368 5.32723L8.95508 5.58033L9.03945 5.63457C9.29858 5.78523 9.59387 5.87562 9.89519 5.8937C10.1965 5.91781 10.4978 5.8696 10.775 5.7551C11.5705 5.39352 12.2093 4.76075 12.5769 3.96527C12.5769 3.95322 12.5227 3.88693 12.4684 4.00746C12.1069 4.67638 11.5344 5.2067 10.8353 5.51404Z" fill="#3F017F"/>
<path d="M6.53257 6.65306C6.75555 6.83385 6.93634 7.06888 7.05084 7.33404C7.16534 7.5992 7.21355 7.88846 7.19547 8.17773L7.48473 8.26812L7.57513 8.1717C7.59321 7.56907 7.32805 6.80372 6.85197 6.41201C6.29754 5.94196 5.12843 5.78527 4.34501 5.9058C4.31488 5.9058 4.30283 5.95401 4.50772 5.94798C5.24294 5.93593 5.96007 6.18301 6.53257 6.65306Z" fill="#3F017F"/>
<path d="M8.99738 13.0289C8.59361 13.0289 8.18985 12.9747 7.79813 12.8722C7.71376 12.8481 7.64145 12.7999 7.59324 12.7336C7.539 12.6674 7.50887 12.583 7.50887 12.4986V8.09939C7.50887 7.79807 7.44258 7.49676 7.31603 7.22557C7.18947 6.95439 6.99663 6.71333 6.7616 6.52652C6.08665 5.99017 5.03807 5.79733 4.01962 6.01428C3.97141 6.02633 3.91717 6.02633 3.86294 6.0203C3.8087 6.01428 3.76049 5.99017 3.7183 5.96607C3.62791 5.91183 3.56162 5.82144 3.53751 5.71899C3.51943 5.64065 3.52546 5.5623 3.55559 5.48999C3.68215 5.12841 3.84486 4.77285 4.03167 4.43538C4.23054 4.08585 4.4716 3.76043 4.76086 3.47719C4.82112 3.41693 4.90549 3.38077 4.98986 3.36872C5.07423 3.35666 5.16462 3.37474 5.23694 3.41693L8.94314 5.55025L9.03956 5.61051C9.30472 5.76117 9.59398 5.85759 9.90133 5.87567C10.2026 5.89978 10.51 5.85157 10.7872 5.73104C11.5887 5.41767 12.2817 4.61014 12.6011 3.62182C12.6192 3.57361 12.6433 3.5254 12.6734 3.48322C12.7096 3.44103 12.7518 3.4109 12.8 3.3868C12.8482 3.36269 12.8964 3.34461 12.9507 3.33858C13.0049 3.33256 13.0591 3.33858 13.1073 3.35666C13.1797 3.38077 13.2459 3.42295 13.2942 3.48322C13.5473 3.77851 13.7702 4.09188 13.9691 4.42935C14.174 4.77888 14.3307 5.15251 14.4331 5.54422C14.4512 5.62859 14.4452 5.71899 14.4151 5.79733C14.3789 5.87567 14.3247 5.94196 14.2463 5.98415L10.516 8.13555L10.4136 8.19581C10.1544 8.34647 9.93146 8.55739 9.76875 8.8105C9.60604 9.0636 9.49153 9.34684 9.45538 9.64213C9.33485 10.4918 9.6904 11.4922 10.3895 12.2515C10.4377 12.3058 10.4738 12.3721 10.4859 12.4384C10.4979 12.5107 10.4979 12.583 10.4738 12.6493C10.4497 12.7156 10.4075 12.7758 10.3533 12.824C10.293 12.8722 10.2267 12.9024 10.1544 12.9144C9.76875 12.9867 9.38306 13.0229 8.99738 13.0289Z" fill="white"/>
</svg>
