<svg width="24" height="24" viewBox="0 0 24 24" fill="none" xmlns="http://www.w3.org/2000/svg">
<path fill-rule="evenodd" clip-rule="evenodd" d="M5.66461 3.38854L2.01636 11.0501C2.00177 11.0779 1.99675 11.1097 2.00206 11.1406C2.00738 11.1715 2.02275 11.1998 2.04578 11.2211L11.894 20.6627C11.9223 20.6882 11.9591 20.7024 11.9973 20.7024C12.0354 20.7024 12.0722 20.6882 12.1005 20.6627L21.9546 11.2211C21.9774 11.1996 21.9926 11.1714 21.9979 11.1405C22.0032 11.1097 21.9983 11.078 21.984 11.0501L18.3358 3.38854C18.3261 3.3619 18.3082 3.33899 18.2848 3.32308C18.2613 3.30718 18.2334 3.29909 18.205 3.29997H5.79404C5.76608 3.30073 5.73891 3.30948 5.71575 3.32517C5.69258 3.34087 5.67439 3.36285 5.66331 3.38854H5.66461Z" fill="#50AF95"/>
<path fill-rule="evenodd" clip-rule="evenodd" d="M13.2678 11.834C13.1972 11.8399 12.8317 11.8634 12.0182 11.8634C11.3701 11.8634 10.9102 11.8458 10.7452 11.834C8.24054 11.7222 6.37229 11.2859 6.37229 10.7672C6.37229 10.2485 8.24054 9.80656 10.7452 9.69478V11.398C10.9086 11.4097 11.376 11.4392 12.0241 11.4392C12.802 11.4392 13.1909 11.4039 13.2619 11.398V9.69478C15.7606 9.80656 17.6289 10.2429 17.6289 10.7613C17.6289 11.2797 15.7658 11.7222 13.2678 11.834ZM13.2678 9.52384V7.99714H16.7568V5.66934H7.2564V7.99714H10.7452V9.52384C7.91042 9.65458 5.7771 10.2132 5.7771 10.891C5.7771 11.5689 7.91042 12.1229 10.7452 12.2582V17.1443H13.2678V12.2582C16.0966 12.1275 18.2244 11.5686 18.2244 10.8969C18.2244 10.2252 16.0966 9.65327 13.2678 9.52416V9.52384Z" fill="white"/>
</svg>
