<svg width="49" height="48" viewBox="0 0 49 48" fill="none" xmlns="http://www.w3.org/2000/svg">
<path d="M24.7002 0C37.965 0 48.722 10.7472 48.722 24C48.722 37.2528 37.965 48 24.7002 48C11.4353 48 0.678345 37.2528 0.678345 24C0.678345 10.7472 11.4353 0 24.7002 0Z" fill="url(#paint0_linear_1_1506)"/>
<path d="M33.9288 16.6601C33.6262 17.0201 33.6454 17.8169 33.1601 17.5721C33.1601 17.5721 29.7827 16.2809 31.863 12.4841C32.4251 11.6057 33.0064 11.5481 32.9199 9.41211C33.4388 10.1993 35.1395 11.7785 35.2741 14.2601C35.4086 15.9161 34.4189 16.1369 33.9288 16.6601Z" fill="white"/>
<path d="M31.2351 22.5611C32.0663 22.2827 33.4115 21.8411 33.4932 19.0091C34.7759 20.9723 39.1287 23.7275 37.0484 32.1611C36.2028 35.4491 33.0511 37.0475 30.0821 38.2571C28.2276 39.0443 26.3346 40.3595 25.566 42.3371C25.566 42.3371 11.5324 40.5659 11.9696 26.6411C12.3203 19.4171 19.0945 16.6571 21.9627 11.3771C23.4905 8.04588 22.9716 4.70508 22.9716 4.70508C22.9716 4.70508 31.9077 10.2587 27.872 18.8171C26.5605 21.8411 29.6929 22.8635 31.2351 22.5611Z" fill="white"/>
<path d="M17.4479 25.0605V29.7165H22.3964V34.6605H27.0566V29.7165H32.0051V25.0605H17.4479Z" fill="url(#paint1_linear_1_1506)"/>
<defs>
<linearGradient id="paint0_linear_1_1506" x1="0.678345" y1="24" x2="48.722" y2="24" gradientUnits="userSpaceOnUse">
<stop stop-color="#FFA50D"/>
<stop offset="1" stop-color="#FE5413"/>
</linearGradient>
<linearGradient id="paint1_linear_1_1506" x1="17.4479" y1="29.8605" x2="32.0051" y2="29.8605" gradientUnits="userSpaceOnUse">
<stop stop-color="#FFA50D"/>
<stop offset="1" stop-color="#FE5413"/>
</linearGradient>
</defs>
</svg>
