<svg width="584" height="584" viewBox="0 0 584 584" fill="none" xmlns="http://www.w3.org/2000/svg">
<path d="M279.858 293.918H279.889L279.858 293.929V293.918ZM276.858 294H279.658L278.198 294.515L277.776 296.013L270.394 322.237C270.394 322.237 270.394 322.237 270.394 322.237C269.627 324.964 270.517 327.721 272.853 329.145C275.096 330.512 277.902 330.18 280.121 328.599L320.161 300.075L318.421 297.631L320.161 300.075C322.54 298.381 323.741 295.691 323.46 293.154C323.318 291.874 322.781 290.563 321.727 289.556C320.646 288.522 319.219 288 317.686 288H305.657L313.606 259.763C313.606 259.763 313.606 259.763 313.606 259.763C314.373 257.036 313.483 254.279 311.147 252.855C308.904 251.488 306.098 251.82 303.879 253.401C303.879 253.401 303.879 253.401 303.879 253.401L263.839 281.925L263.839 281.925C261.461 283.62 260.259 286.309 260.54 288.846C260.682 290.126 261.219 291.437 262.273 292.444C263.355 293.478 264.781 294 266.314 294H276.858ZM349 291C349 322.48 323.48 348 292 348C260.52 348 235 322.48 235 291C235 259.52 260.52 234 292 234C323.48 234 349 259.52 349 291Z" stroke="black" stroke-width="6"/>
<path opacity="0.0344828" d="M142.325 253.137L195.149 243.891C208.916 241.482 218.288 228.583 216.325 214.744L208.795 161.649C205.419 137.845 235.352 124.518 250.783 142.955L285.202 184.079C294.172 194.797 310.029 196.463 321.032 187.845L363.248 154.776C382.176 139.95 408.683 159.209 400.432 181.791L382.027 232.16C377.231 245.288 383.716 259.854 396.681 265.073L446.428 285.1C468.731 294.078 465.306 326.664 441.623 330.809L388.8 340.055C375.033 342.465 365.661 355.364 367.624 369.202L375.154 422.297C378.53 446.101 348.597 459.428 333.166 440.991L298.747 399.868C289.777 389.15 273.92 387.483 262.917 396.102L220.7 429.17C201.773 443.996 175.265 424.737 183.517 402.155L201.921 351.786C206.718 338.658 200.233 324.092 187.268 318.873L137.521 298.847C115.218 289.868 118.643 257.282 142.325 253.137Z" stroke="white" stroke-opacity="0.2" stroke-width="2"/>
<path opacity="0.0689655" d="M147.439 245.813L198.66 239.589C212.535 237.903 222.569 225.512 221.333 211.59L216.772 160.195C214.646 136.246 245.235 124.504 259.68 143.723L290.681 184.97C299.078 196.143 314.826 198.637 326.265 190.606L368.494 160.958C388.172 147.143 413.635 167.763 404.213 189.882L383.992 237.353C378.515 250.212 384.229 265.097 396.904 270.988L443.694 292.735C465.497 302.869 460.372 335.231 436.504 338.131L385.283 344.355C371.409 346.04 361.375 358.431 362.611 372.353L367.172 423.749C369.298 447.698 338.709 459.44 324.263 440.22L293.263 398.973C284.866 387.801 269.118 385.306 257.679 393.337L215.45 422.986C195.772 436.801 170.309 416.181 179.731 394.061L199.951 346.591C205.429 333.732 199.715 318.847 187.04 312.956L140.249 291.208C118.446 281.075 123.572 248.713 147.439 245.813Z" stroke="white" stroke-opacity="0.2" stroke-width="2"/>
<path opacity="0.103448" d="M152.906 238.92L202.359 235.524C216.303 234.567 226.971 222.718 226.466 208.751L224.674 159.214C223.805 135.186 254.966 125.061 268.386 145.011L296.053 186.14C303.854 197.737 319.45 201.052 331.293 193.631L373.298 167.31C393.671 154.544 418.02 176.468 407.454 198.065L385.668 242.59C379.525 255.144 384.452 270.308 396.801 276.854L440.597 300.071C461.84 311.331 455.028 343.381 431.042 345.028L381.589 348.423C367.645 349.381 356.976 361.23 357.481 375.197L359.274 424.734C360.143 448.761 328.981 458.886 315.562 438.937L287.894 397.807C280.093 386.21 264.498 382.895 252.654 390.317L210.65 416.637C190.276 429.404 165.927 407.479 176.494 385.883L198.28 341.358C204.422 328.803 199.495 313.64 187.146 307.093L143.35 283.877C122.107 272.616 128.92 240.567 152.906 238.92Z" stroke="white" stroke-opacity="0.2" stroke-width="2"/>
<path opacity="0.137931" d="M158.691 232.467L206.226 231.697C220.2 231.471 231.475 220.197 231.701 206.222L232.471 158.687C232.86 134.647 264.509 126.167 276.866 146.791L301.3 187.573C308.484 199.562 323.885 203.689 336.1 196.897L377.652 173.797C398.666 162.114 421.834 185.283 410.151 206.296L387.051 247.848C380.26 260.063 384.386 275.464 396.376 282.648L437.157 307.082C457.781 319.439 449.301 351.088 425.261 351.477L377.726 352.247C363.752 352.474 352.477 363.748 352.251 377.723L351.481 425.257C351.092 449.297 319.443 457.777 307.086 437.153L282.651 396.372C275.468 384.382 260.067 380.256 247.851 387.047L206.3 410.148C185.286 421.83 162.118 398.662 173.8 377.648L196.901 336.097C203.692 323.881 199.566 308.48 187.576 301.297L146.795 276.862C126.171 264.505 134.651 232.857 158.691 232.467Z" stroke="white" stroke-opacity="0.2" stroke-width="2"/>
<path opacity="0.172414" d="M164.758 226.478L210.241 228.123C224.209 228.629 236.058 217.96 237.015 204.016L240.133 158.61C241.78 134.624 273.829 127.812 285.09 149.054L306.406 189.267C312.952 201.615 328.116 206.542 340.671 200.4L381.552 180.397C403.148 169.83 425.073 194.179 412.306 214.553L388.14 253.119C380.718 264.963 384.033 280.559 395.63 288.36L433.394 313.763C453.343 327.182 443.218 358.344 419.191 357.475L373.708 355.829C359.741 355.324 347.892 365.992 346.934 379.936L343.817 425.342C342.17 449.328 310.12 456.141 298.86 434.898L277.543 394.686C270.997 382.337 255.833 377.41 243.279 383.553L202.397 403.555C180.801 414.122 158.877 389.773 171.643 369.4L195.81 330.833C203.231 318.989 199.916 303.394 188.319 295.593L150.556 270.19C130.606 256.77 140.731 225.608 164.758 226.478Z" stroke="white" stroke-opacity="0.2" stroke-width="2"/>
<path opacity="0.206897" d="M171.079 220.952L214.393 224.797C228.315 226.032 240.706 215.998 242.392 202.124L247.637 158.957C250.537 135.09 282.899 129.964 293.033 151.767L311.361 191.2C317.252 203.875 332.137 209.589 344.995 204.111L385.001 187.07C407.121 177.648 427.741 203.112 413.926 222.789L388.94 258.378C380.909 269.817 383.403 285.565 394.576 293.962L429.337 320.088C448.556 334.533 436.814 365.122 412.865 362.997L369.551 359.152C355.629 357.917 343.239 367.951 341.553 381.825L336.307 424.992C333.407 448.859 301.046 453.985 290.912 432.182L272.584 392.749C266.693 380.074 251.808 374.36 238.95 379.838L198.943 396.879C176.824 406.301 156.204 380.837 170.019 361.16L195.005 325.571C203.036 314.132 200.542 298.384 189.369 289.987L154.608 263.861C135.389 249.416 147.131 218.827 171.079 220.952Z" stroke="white" stroke-opacity="0.2" stroke-width="2"/>
<path opacity="0.241379" d="M177.627 215.907L218.672 221.728C232.51 223.691 245.409 214.319 247.819 200.552L254.966 159.717C259.112 136.034 291.697 132.609 300.676 154.912L316.157 193.369C321.377 206.335 335.942 212.82 349.07 208.023L388.008 193.795C410.591 185.544 429.85 212.051 415.024 230.979L389.46 263.614C380.841 274.617 382.508 290.474 393.226 299.445L425.016 326.052C443.454 341.483 430.127 371.416 406.322 368.04L365.277 362.219C351.439 360.256 338.54 369.628 336.13 383.395L328.982 424.23C324.837 447.913 292.251 451.338 283.273 429.035L267.791 390.578C262.572 377.612 248.006 371.127 234.879 375.924L195.941 390.152C173.358 398.403 154.099 371.896 168.925 352.968L194.489 320.333C203.108 309.33 201.441 293.473 190.723 284.502L158.933 257.895C140.495 242.464 153.822 212.531 177.627 215.907Z" stroke="white" stroke-opacity="0.2" stroke-width="2"/>
<path opacity="0.275862" d="M184.36 211.353L223.054 218.924C236.77 221.608 250.142 212.925 253.269 199.302L262.09 160.874C267.469 137.441 300.189 135.726 307.988 158.469L320.778 195.764C325.312 208.985 339.518 216.224 352.879 212.121L390.569 200.546C413.553 193.487 431.398 220.967 415.602 239.092L389.697 268.816C380.515 279.353 381.349 295.275 391.583 304.794L420.452 331.648C438.057 348.023 423.181 377.217 399.586 372.599L360.892 365.028C347.176 362.344 333.804 371.027 330.677 384.65L321.856 423.078C316.477 446.511 283.757 448.226 275.958 425.483L263.168 388.188C258.634 374.967 244.428 367.728 231.067 371.832L193.377 383.406C170.394 390.465 152.548 362.985 168.345 344.86L194.249 315.136C203.432 304.599 202.597 288.677 192.363 279.158L163.494 252.304C145.89 235.929 160.765 206.735 184.36 211.353Z" stroke="white" stroke-opacity="0.2" stroke-width="2"/>
<path opacity="0.310345" d="M191.253 207.287L227.53 216.38C241.087 219.778 254.895 211.806 258.73 198.366L268.994 162.403C275.592 139.283 308.357 139.283 314.955 162.403L325.219 198.366C329.054 211.806 342.862 219.778 356.419 216.38L392.696 207.287C416.018 201.441 432.4 229.817 415.677 247.091L389.664 273.961C379.942 284.002 379.942 299.947 389.664 309.988L415.677 336.858C432.4 354.132 416.018 382.508 392.696 376.662L356.419 367.569C342.862 364.171 329.054 372.143 325.219 385.583L314.955 421.546C308.357 444.666 275.592 444.666 268.994 421.546L258.73 385.583C254.895 372.143 241.087 364.171 227.529 367.569L191.253 376.662C167.931 382.508 151.549 354.132 168.272 336.858L194.285 309.988C204.007 299.946 204.007 284.002 194.285 273.961L168.272 247.091C151.549 229.817 167.931 201.441 191.253 207.287Z" stroke="white" stroke-opacity="0.2" stroke-width="2"/>
<path opacity="0.344828" d="M198.264 203.719L232.077 214.103C245.437 218.206 259.644 210.968 264.177 197.747L275.651 164.289C283.45 141.546 316.17 143.261 321.549 166.694L329.463 201.168C332.59 214.791 345.962 223.475 359.678 220.79L394.391 213.998C417.986 209.381 432.861 238.575 415.257 254.95L389.358 279.04C379.124 288.559 378.289 304.482 387.472 315.018L410.711 341.684C426.507 359.809 408.662 387.289 385.679 380.23L351.866 369.846C338.506 365.743 324.299 372.982 319.766 386.203L308.292 419.661C300.493 442.404 267.773 440.689 262.394 417.255L254.48 382.781C251.353 369.159 237.981 360.475 224.265 363.159L189.552 369.952C165.957 374.569 151.082 345.375 168.686 329L194.585 304.909C204.819 295.39 205.654 279.468 196.471 268.931L173.232 242.266C157.436 224.14 175.281 196.661 198.264 203.719Z" stroke="white" stroke-opacity="0.2" stroke-width="2"/>
<path opacity="0.37931" d="M205.371 200.65L236.689 212.093C249.816 216.89 264.382 210.405 269.601 197.439L282.053 166.509C291.032 144.205 323.617 147.63 327.763 171.313L333.511 204.156C335.921 217.924 348.82 227.295 362.658 225.333L395.67 220.651C419.475 217.275 432.802 247.207 414.364 262.639L388.796 284.039C378.078 293.009 376.411 308.866 385.03 319.869L405.59 346.117C420.416 365.045 401.158 391.552 378.575 383.301L347.258 371.858C334.13 367.061 319.564 373.546 314.345 386.511L301.893 417.442C292.915 439.745 260.329 436.32 256.184 412.637L250.435 379.794C248.025 366.027 235.126 356.655 221.288 358.618L188.276 363.3C164.471 366.676 151.145 336.743 169.582 321.312L195.151 299.912C205.869 290.941 207.535 275.085 198.917 264.082L178.356 237.833C163.53 218.906 182.789 192.398 205.371 200.65Z" stroke="white" stroke-opacity="0.2" stroke-width="2"/>
<path opacity="0.413793" d="M212.533 198.077L241.343 210.349C254.202 215.826 269.087 210.112 274.978 197.438L288.176 169.041C298.309 147.238 330.671 152.364 333.571 176.231L337.348 207.316C339.034 221.191 351.425 231.225 365.347 229.989L396.539 227.221C420.487 225.095 432.229 255.684 413.01 270.129L387.978 288.943C376.805 297.341 374.311 313.088 382.342 324.527L400.335 350.156C414.15 369.833 393.53 395.297 371.41 385.874L342.601 373.603C329.742 368.126 314.857 373.839 308.966 386.514L295.768 414.911C285.635 436.714 253.273 431.588 250.373 407.721L246.595 376.635C244.909 362.761 232.519 352.727 218.597 353.962L187.405 356.731C163.457 358.856 151.715 328.267 170.934 313.822L195.966 295.008C207.139 286.611 209.633 270.863 201.602 259.424L183.609 233.796C169.794 214.118 190.414 188.655 212.533 198.077Z" stroke="white" stroke-opacity="0.2" stroke-width="2"/>
<path opacity="0.448276" d="M219.725 195.997L246.031 208.868C258.585 215.011 273.749 210.084 280.295 197.735L294.011 171.86C305.272 150.618 337.321 157.43 338.968 181.416L340.975 210.633C341.932 224.577 353.781 235.246 367.748 234.74L397.015 233.681C421.042 232.812 431.167 263.974 411.218 277.393L386.918 293.739C375.321 301.54 372.006 317.136 379.428 328.979L394.978 353.796C407.744 374.169 385.82 398.518 364.224 387.952L337.918 375.081C325.364 368.938 310.2 373.865 303.654 386.214L289.938 412.089C278.677 433.331 246.628 426.519 244.98 402.533L242.974 373.316C242.017 359.372 230.168 348.703 216.201 349.209L186.934 350.267C162.907 351.137 152.782 319.975 172.731 306.556L197.031 290.21C208.628 282.409 211.943 266.813 204.521 254.969L188.971 230.153C176.205 209.78 198.129 185.43 219.725 195.997Z" stroke="white" stroke-opacity="0.2" stroke-width="2"/>
<path opacity="0.482759" d="M226.906 194.408L250.729 207.652C262.945 214.444 278.346 210.317 285.529 198.328L299.539 174.946C311.896 154.322 343.545 162.802 343.934 186.842L344.375 214.096C344.602 228.07 355.876 239.345 369.851 239.571L397.105 240.012C421.144 240.402 429.624 272.051 409 284.408L385.619 298.417C373.629 305.6 369.503 321.001 376.294 333.217L389.538 357.04C401.221 378.054 378.052 401.222 357.039 389.54L333.216 376.295C321 369.504 305.599 373.63 298.416 385.62L284.406 409.001C272.049 429.626 240.401 421.145 240.011 397.106L239.57 369.852C239.343 355.877 228.069 344.603 214.094 344.377L186.841 343.935C162.801 343.546 154.321 311.897 174.945 299.54L198.327 285.531C210.316 278.347 214.443 262.946 207.651 250.731L194.407 226.908C182.724 205.894 205.893 182.725 226.906 194.408Z" stroke="white" stroke-opacity="0.2" stroke-width="2"/>
<path opacity="0.517241" d="M234.054 193.303L255.433 206.7C267.276 214.121 282.872 210.806 290.673 199.209L304.754 178.276C318.174 158.326 349.336 168.451 348.466 192.478L347.554 217.691C347.049 231.658 357.718 243.507 371.661 244.465L396.831 246.193C420.817 247.84 427.63 279.889 406.387 291.15L384.096 302.966C371.747 309.512 366.82 324.676 372.963 337.23L384.051 359.892C394.618 381.489 370.269 403.413 349.895 390.646L328.517 377.25C316.673 369.829 301.077 373.144 293.276 384.741L279.195 405.674C265.775 425.624 234.614 415.499 235.483 391.471L236.395 366.259C236.9 352.291 226.232 340.443 212.288 339.485L187.118 337.757C163.132 336.11 156.32 304.061 177.562 292.8L199.853 280.984C212.202 274.437 217.129 259.274 210.986 246.719L199.898 224.058C189.331 202.461 213.68 180.537 234.054 193.303Z" stroke="white" stroke-opacity="0.2" stroke-width="2"/>
<path opacity="0.551724" d="M241.128 192.672L260.116 206.003C271.555 214.034 287.303 211.54 295.7 200.367L309.64 181.821C324.085 162.601 354.674 174.343 352.548 198.292L350.497 221.401C349.262 235.323 359.296 247.714 373.17 249.4L396.201 252.199C420.069 255.099 425.194 287.461 403.391 297.594L382.352 307.373C369.678 313.264 363.964 328.149 369.441 341.007L378.533 362.352C387.955 384.472 362.492 405.092 342.814 391.277L323.826 377.946C312.387 369.914 296.639 372.409 288.242 383.581L274.303 402.128C259.858 421.347 229.269 409.605 231.394 385.657L233.445 362.547C234.681 348.625 224.647 336.234 210.772 334.548L187.741 331.75C163.874 328.85 158.748 296.488 180.551 286.354L201.591 276.576C214.265 270.685 219.979 255.8 214.502 242.941L205.41 221.596C195.988 199.476 221.451 178.857 241.128 192.672Z" stroke="white" stroke-opacity="0.2" stroke-width="2"/>
<path opacity="0.586207" d="M248.11 192.502L264.777 205.558C275.78 214.177 291.637 212.51 300.607 201.792L314.196 185.556C329.628 167.119 359.56 180.446 356.184 204.251L353.211 225.213C351.249 239.051 360.62 251.95 374.388 254.36L395.243 258.01C418.926 262.156 422.351 294.741 400.047 303.72L380.407 311.627C367.441 316.846 360.956 331.412 365.753 344.539L373.019 364.426C381.271 387.008 354.763 406.267 335.836 391.441L319.168 378.385C308.165 369.767 292.308 371.433 283.338 382.151L269.749 398.387C254.318 416.824 224.385 403.498 227.761 379.693L230.734 358.73C232.697 344.892 223.325 331.993 209.558 329.584L188.702 325.933C165.02 321.788 161.595 289.202 183.898 280.224L203.539 272.317C216.504 267.098 222.989 252.532 218.192 239.404L210.926 219.518C202.675 196.935 229.182 177.676 248.11 192.502Z" stroke="white" stroke-opacity="0.2" stroke-width="2"/>
<path opacity="0.62069" d="M254.966 192.791L269.398 205.368C279.935 214.551 295.857 213.716 305.377 203.483L318.415 189.465C334.79 171.861 363.984 186.736 359.367 210.331L355.69 229.119C353.006 242.835 361.69 256.207 375.313 259.334L393.971 263.617C417.404 268.996 419.119 301.717 396.376 309.516L378.268 315.725C365.047 320.259 357.809 334.465 361.912 347.826L367.532 366.126C374.59 389.11 347.111 406.955 328.985 391.159L314.553 378.581C304.016 369.399 288.094 370.233 278.575 380.467L265.536 394.484C249.161 412.088 219.967 397.213 224.584 373.618L228.261 354.831C230.945 341.114 222.261 327.742 208.639 324.615L189.98 320.332C166.547 314.953 164.832 282.233 187.575 274.434L205.683 268.224C218.904 263.69 226.143 249.484 222.04 236.123L216.42 217.823C209.361 194.839 236.841 176.994 254.966 192.791Z" stroke="white" stroke-opacity="0.2" stroke-width="2"/>
<path opacity="0.655172" d="M261.664 193.514L273.96 205.419C284.002 215.14 299.946 215.14 309.988 205.419L322.285 193.514C339.559 176.79 367.934 193.173 362.089 216.494L357.927 233.096C354.529 246.653 362.501 260.461 375.941 264.297L392.399 268.994C415.519 275.592 415.519 308.357 392.399 314.955L375.941 319.652C362.501 323.488 354.529 337.296 357.927 350.853L362.089 367.455C367.934 390.776 339.559 407.159 322.285 390.436L309.988 378.531C299.946 368.809 284.002 368.809 273.96 378.531L261.664 390.436C244.39 407.159 216.014 390.776 221.86 367.455L226.021 350.853C229.42 337.296 221.448 323.488 208.007 319.652L191.549 314.955C168.429 308.357 168.429 275.592 191.549 268.994L208.007 264.297C221.448 260.461 229.42 246.653 226.021 233.096L221.86 216.494C216.014 193.173 244.39 176.79 261.664 193.514Z" stroke="white" stroke-opacity="0.2" stroke-width="2"/>
<path opacity="0.689655" d="M268.179 194.652L278.455 205.699C287.974 215.933 303.896 216.767 314.433 207.585L325.807 197.672C343.932 181.876 371.411 199.721 364.353 222.705L359.924 237.127C355.821 250.488 363.059 264.694 376.28 269.228L390.551 274.122C413.294 281.921 411.579 314.641 388.146 320.02L373.441 323.396C359.819 326.523 351.135 339.894 353.819 353.611L356.717 368.417C361.334 392.013 332.14 406.888 315.765 389.283L305.489 378.236C295.97 368.002 280.048 367.168 269.511 376.351L258.137 386.263C240.012 402.059 212.532 384.214 219.591 361.231L224.02 346.808C228.123 333.448 220.885 319.241 207.664 314.708L193.392 309.814C170.65 302.015 172.364 269.294 195.798 263.915L210.502 260.54C224.125 257.413 232.809 244.041 230.124 230.325L227.227 215.518C222.61 191.923 251.804 177.048 268.179 194.652Z" stroke="white" stroke-opacity="0.2" stroke-width="2"/>
<path opacity="0.724138" d="M274.491 196.203L282.873 206.217C291.843 216.935 307.7 218.601 318.703 209.983L328.983 201.93C347.911 187.104 374.418 206.363 366.167 228.945L361.685 241.211C356.888 254.339 363.373 268.904 376.339 274.124L388.453 279.001C410.756 287.979 407.331 320.565 383.649 324.71L370.785 326.962C357.018 329.371 347.646 342.27 349.609 356.109L351.443 369.038C354.819 392.843 324.886 406.169 309.455 387.732L301.073 377.718C292.103 367 276.246 365.333 265.243 373.952L254.963 382.005C236.035 396.831 209.528 377.572 217.779 354.989L222.261 342.724C227.058 329.596 220.573 315.03 207.607 309.811L195.493 304.934C173.19 295.956 176.615 263.37 200.298 259.225L213.161 256.973C226.928 254.563 236.3 241.664 234.337 227.826L232.504 214.897C229.128 191.092 259.06 177.765 274.491 196.203Z" stroke="white" stroke-opacity="0.2" stroke-width="2"/>
<path opacity="0.758621" d="M280.572 198.142L287.199 206.96C295.596 218.133 311.344 220.627 322.783 212.596L331.81 206.258C351.488 192.443 376.951 213.063 367.529 235.182L363.206 245.33C357.729 258.189 363.443 273.074 376.118 278.965L386.12 283.614C407.923 293.748 402.798 326.11 378.93 329.01L367.981 330.34C354.106 332.026 344.072 344.417 345.308 358.339L346.283 369.326C348.408 393.275 317.819 405.017 303.374 385.797L296.747 376.98C288.35 365.807 272.602 363.313 261.163 371.344L252.135 377.682C232.458 391.497 206.995 370.877 216.417 348.757L220.739 338.609C226.217 325.75 220.503 310.865 207.828 304.975L197.825 300.325C176.022 290.192 181.148 257.83 205.015 254.93L215.965 253.599C229.84 251.914 239.874 239.523 238.638 225.601L237.663 214.614C235.537 190.665 266.126 178.923 280.572 198.142Z" stroke="white" stroke-opacity="0.2" stroke-width="2"/>
<path opacity="0.793103" d="M286.4 200.445L291.425 207.914C299.226 219.511 314.822 222.826 326.665 215.405L334.293 210.625C354.667 197.859 379.016 219.783 368.449 241.379L364.493 249.465C358.35 262.019 363.277 277.183 375.626 283.729L383.58 287.945C404.822 299.206 398.01 331.255 374.024 332.902L365.043 333.519C351.099 334.477 340.43 346.325 340.936 360.293L341.261 369.289C342.13 393.316 310.969 403.441 297.549 383.492L292.525 376.023C284.724 364.426 269.128 361.111 257.284 368.532L249.656 373.312C229.283 386.078 204.934 364.154 215.5 342.558L219.457 334.472C225.599 321.917 220.673 306.754 208.324 300.207L200.37 295.991C179.127 284.73 185.94 252.681 209.926 251.034L218.907 250.418C232.851 249.46 243.519 237.611 243.014 223.644L242.689 214.648C241.819 190.621 272.981 180.496 286.4 200.445Z" stroke="white" stroke-opacity="0.2" stroke-width="2"/>
<path opacity="0.827586" d="M291.951 203.093L295.535 209.075C302.718 221.065 318.119 225.191 330.335 218.4L336.43 215.011C357.443 203.329 380.612 226.497 368.929 247.511L365.541 253.606C358.749 265.822 362.876 281.222 374.865 288.406L380.848 291.99C401.472 304.347 392.992 335.996 368.952 336.385L361.979 336.498C348.004 336.725 336.73 347.999 336.504 361.974L336.391 368.946C336.001 392.986 304.353 401.466 291.996 380.842L288.411 374.86C281.228 362.871 265.827 358.744 253.611 365.535L247.516 368.924C226.503 380.607 203.334 357.438 215.017 336.424L218.405 330.329C225.197 318.114 221.07 302.713 209.081 295.529L203.099 291.945C182.474 279.588 190.955 247.939 214.994 247.55L221.967 247.437C235.942 247.211 247.216 235.936 247.442 221.962L247.555 214.989C247.945 190.949 279.594 182.469 291.951 203.093Z" stroke="white" stroke-opacity="0.2" stroke-width="2"/>
<path opacity="0.862069" d="M297.21 206.067L299.526 210.436C306.073 222.785 321.236 227.712 333.791 221.569L338.233 219.396C359.829 208.829 381.753 233.178 368.987 253.552L366.361 257.742C358.94 269.586 362.255 285.181 373.852 292.983L377.955 295.743C397.904 309.162 387.779 340.324 363.752 339.455L358.81 339.276C344.843 338.771 332.994 349.439 332.036 363.383L331.698 368.317C330.051 392.303 298.001 399.115 286.741 377.873L284.424 373.503C277.878 361.154 262.714 356.227 250.16 362.37L245.718 364.544C224.122 375.11 202.198 350.761 214.964 330.388L217.59 326.197C225.011 314.353 221.696 298.758 210.099 290.957L205.996 288.197C186.047 274.777 196.172 243.615 220.199 244.485L225.141 244.663C239.108 245.169 250.957 234.5 251.914 220.556L252.253 215.623C253.9 191.636 285.95 184.824 297.21 206.067Z" stroke="white" stroke-opacity="0.2" stroke-width="2"/>
<path opacity="0.896552" d="M302.153 209.336L303.383 211.981C309.273 224.656 324.159 230.37 337.017 224.892L339.701 223.749C361.82 214.327 382.44 239.791 368.625 259.468L366.949 261.855C358.918 273.294 361.412 289.042 372.585 297.439L374.917 299.192C394.136 313.637 382.394 344.226 358.446 342.1L355.54 341.843C341.618 340.607 329.227 350.641 327.542 364.515L327.19 367.411C324.29 391.278 291.928 396.404 281.794 374.601L280.565 371.956C274.674 359.281 259.789 353.567 246.93 359.045L244.247 360.188C222.127 369.61 201.507 344.146 215.322 324.469L216.998 322.082C225.029 310.643 222.535 294.895 211.362 286.498L209.031 284.745C189.811 270.3 201.553 239.711 225.502 241.837L228.407 242.095C242.329 243.33 254.72 233.296 256.406 219.422L256.758 216.526C259.658 192.659 292.02 187.533 302.153 209.336Z" stroke="white" stroke-opacity="0.2" stroke-width="2"/>
<path opacity="0.931035" d="M231.569 239.709C245.407 241.672 258.529 232.138 260.939 218.37C265.084 194.687 298.05 191.223 307.029 213.526C312.248 226.491 327.066 233.089 340.194 228.292C362.776 220.041 382.26 246.857 367.434 265.785C358.815 276.788 360.511 292.919 371.229 301.89C389.666 317.321 376.184 347.603 352.379 344.227C338.541 342.264 325.418 351.798 323.009 365.566C318.863 389.248 285.898 392.713 276.919 370.41C271.7 357.444 256.881 350.847 243.754 355.644C221.171 363.895 201.688 337.078 216.514 318.151C225.132 307.148 223.437 291.017 212.719 282.046C194.282 266.615 207.764 236.333 231.569 239.709Z" stroke="white" stroke-opacity="0.2" stroke-width="2"/>
<path opacity="0.965517" d="M235.421 237.639C249.002 240.296 262.242 231.698 265.339 218.21C270.66 195.026 303.032 193.33 310.747 215.83C315.237 228.921 329.303 236.088 342.532 232.025C365.271 225.042 382.925 252.228 367.298 270.161C358.205 280.594 359.032 296.359 369.165 305.785C386.581 321.985 371.865 350.868 348.521 346.3C334.94 343.642 321.699 352.24 318.603 365.729C313.282 388.912 280.91 390.609 273.194 368.108C268.705 355.018 254.639 347.85 241.409 351.913C218.671 358.896 201.016 331.71 216.644 313.778C225.736 303.345 224.91 287.579 214.777 278.154C197.36 261.953 212.077 233.071 235.421 237.639Z" stroke="white" stroke-opacity="0.2" stroke-width="2"/>
<path d="M239.329 235.825C252.515 239.13 265.946 231.376 269.676 218.304C276.079 195.87 307.873 195.87 314.275 218.304C318.006 231.376 331.436 239.13 344.622 235.825C367.252 230.152 383.149 257.687 366.922 274.449C357.466 284.216 357.466 299.724 366.922 309.491C383.149 326.253 367.252 353.787 344.622 348.115C331.436 344.809 318.006 352.563 314.275 365.636C307.873 388.07 276.079 388.07 269.676 365.636C265.946 352.563 252.515 344.809 239.329 348.115C216.699 353.787 200.802 326.253 217.029 309.491C226.485 299.724 226.485 284.216 217.03 274.449C200.802 257.687 216.699 230.152 239.329 235.825Z" stroke="white" stroke-opacity="0.2" stroke-width="2"/>
</svg>
