<svg width="102" height="20" viewBox="0 0 102 20" fill="none" xmlns="http://www.w3.org/2000/svg">
<path d="M7.98538 14.5756C5.9086 14.5756 4.82632 12.7454 4.82632 10C4.82632 7.25461 5.9086 5.39483 7.98538 5.39483C10.0622 5.39483 11.1737 7.25461 11.1737 10C11.1737 12.7454 10.0622 14.5756 7.98538 14.5756ZM8.01462 18C12.8409 18 16 14.5461 16 10C16 5.45387 12.8409 2 8.01462 2C3.21755 2 0 5.45387 0 10C0 14.5461 3.21755 18 8.01462 18Z" fill="#77ED91"/>
<path d="M24.9854 14.5756C22.9086 14.5756 21.8263 12.7454 21.8263 10C21.8263 7.25461 22.9086 5.39483 24.9854 5.39483C27.0622 5.39483 28.1737 7.25461 28.1737 10C28.1737 12.7454 27.0622 14.5756 24.9854 14.5756ZM25.0146 18C29.841 18 33 14.5461 33 10C33 5.45387 29.841 2 25.0146 2C20.2176 2 17 5.45387 17 10C17 14.5461 20.2176 18 25.0146 18Z" fill="#77ED91"/>
<path d="M34 20H38.5872V13.6207H38.6435C39.5441 14.8563 40.8668 15.6034 42.7242 15.6034C46.4953 15.6034 49 12.5575 49 7.78736C49 3.36207 46.6642 0 42.8368 0C40.8668 0 39.4597 0.890804 38.4747 2.21264H38.3902V0.431035H34V20ZM41.5422 11.9828C39.5722 11.9828 38.4465 10.3448 38.4465 7.95977C38.4465 5.57471 39.4597 3.76437 41.4578 3.76437C43.4278 3.76437 44.3565 5.43104 44.3565 7.95977C44.3565 10.4598 43.2871 11.9828 41.5422 11.9828Z" fill="#77ED91"/>
<path d="M57.2324 18C61.1245 18 64 16.291 64 12.9908C64 9.13075 60.9212 8.45304 58.3071 8.01105C56.4191 7.65746 54.7344 7.51013 54.7344 6.44936C54.7344 5.50645 55.6349 5.06446 56.7967 5.06446C58.1037 5.06446 59.0042 5.47698 59.1784 6.83241H63.5353C63.3029 3.85635 61.0373 2 56.8257 2C53.3112 2 50.4066 3.65009 50.4066 6.83241C50.4066 10.3683 53.166 11.0755 55.751 11.5175C57.7261 11.8711 59.527 12.0184 59.527 13.3738C59.527 14.3462 58.6266 14.8766 57.2033 14.8766C55.6349 14.8766 54.6473 14.14 54.473 12.6372H50C50.1452 15.9669 52.8755 18 57.2324 18Z" fill="#77ED91"/>
<path d="M70.122 17.5C72.1423 17.5 73.4228 16.703 74.4756 15.2799H74.561V17.0731H79V2.5H74.3618V10.6404C74.3618 12.3767 73.3943 13.5721 71.8008 13.5721C70.3211 13.5721 69.6098 12.6898 69.6098 11.0958V2.5H65V12.0636C65 15.3083 66.7642 17.5 70.122 17.5Z" fill="#77ED91"/>
<path d="M80 17.5H84.5107V9.33112C84.5107 7.59488 85.3409 6.37097 86.7522 6.37097C88.1082 6.37097 88.7447 7.28178 88.7447 8.84725V17.5H93.2553V9.33112C93.2553 7.59488 94.0579 6.37097 95.4969 6.37097C96.8528 6.37097 97.4893 7.28178 97.4893 8.84725V17.5H102V8.02182C102 4.74858 100.395 2.5 97.1849 2.5C95.3585 2.5 93.8365 3.29696 92.7296 5.06167H92.6742C91.9547 3.4962 90.5434 2.5 88.6893 2.5C86.6415 2.5 85.2855 3.4962 84.4 5.00474H84.317V2.92695H80V17.5Z" fill="#77ED91"/>
</svg>
